<?xml version="1.0" encoding="UTF-8" standalone="no"?>
<!-- Created with Inkscape (http://www.inkscape.org/) -->

<svg
   width="37.449738mm"
   height="49.136566mm"
   viewBox="0 0 93.624344 122.84142"
   version="1.1"
   id="svg5"
   inkscape:version="1.2.2 (732a01da63, 2022-12-09)"
   sodipodi:docname="00asiento_disponible.svg"
   xmlns:inkscape="http://www.inkscape.org/namespaces/inkscape"
   xmlns:sodipodi="http://sodipodi.sourceforge.net/DTD/sodipodi-0.dtd"
   xmlns="http://www.w3.org/2000/svg"
   xmlns:svg="http://www.w3.org/2000/svg">
  <sodipodi:namedview
     id="namedview7"
     pagecolor="#ffffff"
     bordercolor="#000000"
     borderopacity="0.25"
     inkscape:showpageshadow="2"
     inkscape:pageopacity="0.0"
     inkscape:pagecheckerboard="0"
     inkscape:deskcolor="#d1d1d1"
     inkscape:document-units="mm"
     showgrid="false"
     inkscape:zoom="1.8886083"
     inkscape:cx="36.534839"
     inkscape:cy="82.86525"
     inkscape:window-width="1360"
     inkscape:window-height="684"
     inkscape:window-x="-8"
     inkscape:window-y="-8"
     inkscape:window-maximized="1"
     inkscape:current-layer="layer1" />
  <defs
     id="defs2">
    <rect
       x="298.6326"
       y="480.77731"
       width="175.06302"
       height="253.51599"
       id="rect2398" />
    <rect
       x="247.38081"
       y="496.58395"
       width="269.82233"
       height="144.42969"
       id="rect2286" />
  </defs>
  <g
     inkscape:label="Capa 1"
     inkscape:groupmode="layer"
     id="layer1"
     transform="translate(-54.335912,-66.905564)">
    <path
       id="rect234"
       style="display:inline;fill:none;fill-opacity:1;stroke:#000000;stroke-width:2.69837;stroke-linecap:round;stroke-linejoin:round"
       d="m 136.84333,122.05612 a 72.84906,40.46573 0 0 0 -2.17972,-0.68058 72.84906,40.46573 0 0 0 -4.49223,-1.18701 72.84906,40.46573 0 0 0 -4.62762,-1.01338 72.84906,40.46573 0 0 0 -4.74131,-0.83612 72.84906,40.46573 0 0 0 -4.83278,-0.65422 72.84906,40.46573 0 0 0 -4.90203,-0.46923 72.84906,40.46573 0 0 0 -4.94802,-0.28267 72.84906,40.46573 0 0 0 -4.97127,-0.0941 72.84906,40.46573 0 0 0 -4.971792,0.0941 72.84906,40.46573 0 0 0 -4.948018,0.28267 72.84906,40.46573 0 0 0 -4.902026,0.46923 72.84906,40.46573 0 0 0 -4.83278,0.65422 72.84906,40.46573 0 0 0 -4.741313,0.83612 72.84906,40.46573 0 0 0 -4.627624,1.0139 72.84906,40.46573 0 0 0 -4.492233,1.18649 72.84906,40.46573 0 0 0 -2.179712,0.68058 v 47.54541 c 0,10.41317 8.3831,18.79627 18.796269,18.79627 h 33.797939 c 10.41317,0 18.79627,-8.3831 18.79627,-18.79627 z"
       inkscape:label="rect234" />
    <path
       id="path2194"
       style="display:inline;fill:none;stroke:#000000;stroke-width:2.69837;stroke-linecap:round;stroke-linejoin:round"
       d="m 84.249121,79.462333 c -0.325412,0 -0.648713,0.0081 -0.969967,0.02429 -0.321252,0.01618 -0.64034,0.04038 -0.957047,0.07235 -0.316707,0.03197 -0.630807,0.072 -0.942578,0.119373 -0.311773,0.04738 -0.621142,0.102457 -0.927592,0.164847 -0.30645,0.06239 -0.610315,0.131753 -0.911056,0.208773 -0.300739,0.07702 -0.598326,0.161437 -0.892968,0.252698 -0.294643,0.09126 -0.586208,0.189442 -0.874366,0.294556 -0.288156,0.105113 -0.572927,0.217319 -0.854211,0.335896 -0.281285,0.118579 -0.559001,0.243516 -0.833024,0.375171 -0.274024,0.131656 -0.544429,0.270101 -0.810803,0.414445 -0.266375,0.144346 -0.528695,0.294488 -0.787032,0.451136 -0.258339,0.156646 -0.51283,0.31978 -0.762745,0.488342 -0.249913,0.168561 -0.495286,0.342879 -0.736389,0.522965 -0.241101,0.180088 -0.477614,0.365847 -0.709517,0.557072 -0.231903,0.191227 -0.459298,0.387652 -0.681612,0.589628 -0.222316,0.201978 -0.439817,0.409328 -0.652157,0.621668 -0.21234,0.21234 -0.419691,0.429842 -0.621667,0.652156 -0.201977,0.222316 -0.398403,0.44971 -0.589628,0.681613 -0.191227,0.231901 -0.376986,0.468415 -0.557072,0.709517 -0.180088,0.241103 -0.354404,0.486475 -0.522966,0.736389 -0.168561,0.249915 -0.331179,0.504407 -0.487825,0.762744 -0.156648,0.258339 -0.307308,0.520658 -0.451652,0.787032 -0.144346,0.266375 -0.28279,0.53678 -0.414445,0.810804 -0.131656,0.274022 -0.256593,0.551739 -0.375171,0.833024 -0.118579,0.281283 -0.230784,0.566054 -0.335897,0.854211 -0.105114,0.288158 -0.203295,0.579723 -0.294556,0.874365 -0.09126,0.294643 -0.175678,0.592229 -0.252698,0.892969 -0.07702,0.300741 -0.146381,0.604605 -0.208772,0.911056 -0.06239,0.306449 -0.117473,0.615819 -0.164848,0.927592 -0.04737,0.311771 -0.0874,0.625871 -0.119373,0.942578 -0.03197,0.316705 -0.05617,0.635795 -0.07235,0.957047 -0.01618,0.321253 -0.02429,0.644555 -0.02429,0.969967 v 23.797513 a 72.84906,40.46573 0 0 1 2.179712,-0.68058 72.84906,40.46573 0 0 1 4.492233,-1.18649 72.84906,40.46573 0 0 1 4.627624,-1.0139 72.84906,40.46573 0 0 1 4.741313,-0.83612 72.84906,40.46573 0 0 1 4.83278,-0.65422 72.84906,40.46573 0 0 1 4.902026,-0.46923 72.84906,40.46573 0 0 1 4.948018,-0.28267 72.84906,40.46573 0 0 1 4.971797,-0.0941 72.84906,40.46573 0 0 1 4.97127,0.0941 72.84906,40.46573 0 0 1 4.94802,0.28267 72.84906,40.46573 0 0 1 4.90203,0.46923 72.84906,40.46573 0 0 1 4.83278,0.65422 72.84906,40.46573 0 0 1 4.74131,0.83612 72.84906,40.46573 0 0 1 4.62761,1.01338 72.84906,40.46573 0 0 1 4.49224,1.18701 72.84906,40.46573 0 0 1 2.17972,0.68058 V 98.258602 c 0,-0.325412 -0.008,-0.648714 -0.0243,-0.969967 -0.0162,-0.321252 -0.0404,-0.640342 -0.0724,-0.957047 -0.032,-0.316707 -0.072,-0.630807 -0.11937,-0.942578 -0.0474,-0.311773 -0.10247,-0.621143 -0.16485,-0.927592 -0.0624,-0.306451 -0.13176,-0.610315 -0.20877,-0.911056 -0.077,-0.30074 -0.16144,-0.598326 -0.2527,-0.892969 -0.0913,-0.294642 -0.18944,-0.586207 -0.29455,-0.874365 -0.10512,-0.288157 -0.21732,-0.572928 -0.3359,-0.854211 -0.11858,-0.281285 -0.24352,-0.559002 -0.37517,-0.833024 -0.13166,-0.274024 -0.2701,-0.544429 -0.41445,-0.810804 -0.14434,-0.266374 -0.295,-0.528693 -0.45165,-0.787032 -0.15665,-0.258337 -0.31927,-0.512829 -0.48782,-0.762744 -0.16857,-0.249914 -0.34288,-0.495286 -0.52297,-0.736389 -0.18009,-0.241102 -0.36585,-0.477616 -0.55707,-0.709517 -0.19123,-0.231903 -0.38765,-0.459297 -0.58963,-0.681613 -0.20198,-0.222314 -0.40933,-0.439816 -0.62167,-0.652156 -0.21234,-0.21234 -0.42984,-0.41969 -0.65215,-0.621668 -0.22232,-0.201976 -0.44971,-0.398401 -0.68162,-0.589628 -0.2319,-0.191225 -0.46841,-0.376984 -0.70951,-0.557072 -0.24111,-0.180086 -0.48648,-0.354404 -0.73639,-0.522965 -0.24992,-0.168562 -0.50441,-0.331696 -0.76275,-0.488342 -0.25834,-0.156648 -0.52065,-0.30679 -0.78703,-0.451136 -0.26637,-0.144344 -0.53678,-0.282789 -0.8108,-0.414445 -0.27403,-0.131655 -0.55174,-0.256592 -0.83303,-0.375171 -0.28128,-0.118577 -0.56605,-0.230783 -0.85421,-0.335896 -0.28816,-0.105114 -0.57972,-0.203295 -0.87436,-0.294556 -0.29465,-0.09126 -0.59223,-0.175678 -0.89297,-0.252698 -0.30074,-0.07702 -0.60461,-0.146381 -0.91106,-0.208773 -0.30645,-0.06239 -0.61582,-0.117472 -0.92759,-0.164847 -0.31177,-0.04738 -0.62587,-0.0874 -0.94258,-0.119373 -0.3167,-0.03197 -0.63579,-0.05617 -0.95705,-0.07235 -0.32124,-0.01618 -0.64455,-0.02429 -0.96996,-0.02429 z" />
    <path
       id="path2111"
       style="display:inline;fill:none;stroke:#000000;stroke-width:2.69837;stroke-linecap:round;stroke-linejoin:round"
       d="m 84.249121,68.254749 c -10.41318,0 -18.796269,8.383088 -18.796269,18.796268 v 11.207585 c 0,-0.325412 0.0081,-0.648714 0.02429,-0.969967 0.01618,-0.321253 0.04038,-0.640341 0.07235,-0.957047 0.03197,-0.316707 0.072,-0.630806 0.119373,-0.942578 0.04738,-0.311773 0.102456,-0.621142 0.164848,-0.927592 0.06239,-0.306451 0.131753,-0.610315 0.208772,-0.911056 0.07702,-0.30074 0.161438,-0.598326 0.252698,-0.892969 0.09126,-0.294643 0.189442,-0.586207 0.294556,-0.874365 0.105113,-0.288157 0.217318,-0.572927 0.335897,-0.854211 0.118578,-0.281285 0.243515,-0.559001 0.375171,-0.833024 0.131656,-0.274024 0.270099,-0.544429 0.414445,-0.810804 0.144345,-0.266375 0.295004,-0.528693 0.451652,-0.787032 0.156647,-0.258338 0.319264,-0.512829 0.487825,-0.762744 0.168562,-0.249914 0.342878,-0.495286 0.522966,-0.736389 0.180087,-0.241102 0.365845,-0.477615 0.557072,-0.709517 0.191226,-0.231903 0.387651,-0.459297 0.589628,-0.681613 0.201977,-0.222315 0.409327,-0.439816 0.621667,-0.652156 0.21234,-0.21234 0.429841,-0.41969 0.652157,-0.621668 0.222315,-0.201977 0.449709,-0.398401 0.681612,-0.589628 0.231903,-0.191226 0.468415,-0.376984 0.709517,-0.557072 0.241103,-0.180087 0.486475,-0.354404 0.736389,-0.522965 0.249915,-0.168562 0.504406,-0.331695 0.762745,-0.488342 0.258338,-0.156648 0.520657,-0.30679 0.787032,-0.451136 0.266375,-0.144345 0.536779,-0.282789 0.810803,-0.414445 0.274023,-0.131656 0.551739,-0.256592 0.833024,-0.375171 0.281284,-0.118578 0.566054,-0.230783 0.854211,-0.335896 0.288158,-0.105114 0.579723,-0.203295 0.874366,-0.294556 0.294643,-0.09126 0.592228,-0.175678 0.892968,-0.252698 0.300741,-0.07702 0.604606,-0.146381 0.911056,-0.208773 0.30645,-0.06239 0.615819,-0.117472 0.927592,-0.164847 0.311772,-0.04738 0.625871,-0.0874 0.942578,-0.119373 0.316707,-0.03197 0.635794,-0.05617 0.957047,-0.07235 0.321254,-0.01618 0.644555,-0.02429 0.969967,-0.02429 h 33.797944 c 0.32541,0 0.6487,0.0081 0.96996,0.02429 0.32126,0.01618 0.64035,0.04038 0.95705,0.07235 0.31671,0.03197 0.6308,0.072 0.94258,0.119373 0.31177,0.04738 0.62114,0.102456 0.92759,0.164847 0.30645,0.06239 0.61032,0.131753 0.91106,0.208773 0.30074,0.07702 0.59832,0.161437 0.89297,0.252698 0.29464,0.09126 0.5862,0.189442 0.87436,0.294556 0.28816,0.105113 0.57293,0.217318 0.85421,0.335896 0.28129,0.118579 0.559,0.243515 0.83302,0.375171 0.27402,0.131656 0.54444,0.2701 0.8108,0.414445 0.26638,0.144346 0.52869,0.294488 0.78704,0.451136 0.25833,0.156647 0.51282,0.31978 0.76274,0.488342 0.24991,0.168561 0.49529,0.342878 0.73639,0.522965 0.2411,0.180088 0.47761,0.365846 0.70951,0.557072 0.23191,0.191227 0.45931,0.387651 0.68163,0.589628 0.2223,0.201978 0.4398,0.409328 0.65215,0.621668 0.21234,0.21234 0.41969,0.429841 0.62167,0.652156 0.20197,0.222316 0.3984,0.44971 0.58963,0.681613 0.19121,0.231902 0.37698,0.468415 0.55707,0.709517 0.18009,0.241103 0.3544,0.486475 0.52296,0.736389 0.16857,0.249915 0.33117,0.504406 0.48782,0.762744 0.15666,0.258339 0.30731,0.520657 0.45165,0.787032 0.14436,0.266375 0.2828,0.53678 0.41445,0.810804 0.13165,0.274023 0.25659,0.551739 0.37517,0.833024 0.11858,0.281284 0.23078,0.566054 0.3359,0.854211 0.10511,0.288158 0.2033,0.579722 0.29455,0.874365 0.0913,0.294643 0.17568,0.592229 0.2527,0.892969 0.077,0.300741 0.14638,0.604605 0.20877,0.911056 0.0624,0.30645 0.11747,0.615819 0.16485,0.927592 0.0474,0.311772 0.0874,0.625871 0.11937,0.942578 0.032,0.316706 0.0562,0.635794 0.0724,0.957047 0.0162,0.321253 0.0243,0.644555 0.0243,0.969967 V 87.051017 c 0,-10.41318 -8.38309,-18.796268 -18.79627,-18.796268 z" />
    <path
       id="rect2197"
       style="display:inline;fill:none;stroke:#000000;stroke-width:2.69801;stroke-linecap:round;stroke-linejoin:round"
       d="m 141.72728,110.15736 c 2.70572,0 4.88397,2.17824 4.88397,4.88396 v 32.69304 c 0,2.70572 -2.17825,4.88396 -4.88397,4.88396 -2.70571,0 -4.88396,-2.17824 -4.88396,-4.88396 v -32.69304 c 0,-2.70572 2.17825,-4.88396 4.88396,-4.88396 z" />
    <path
       id="rect2197-8"
       style="display:inline;fill:none;stroke:#000000;stroke-width:2.69801;stroke-linecap:round;stroke-linejoin:round"
       d="m 60.568879,110.15736 c 2.705715,0 4.883962,2.17824 4.883962,4.88396 v 32.69304 c 0,2.70572 -2.178247,4.88396 -4.883962,4.88396 -2.705715,0 -4.883962,-2.17824 -4.883962,-4.88396 v -32.69304 c 0,-2.70572 2.178247,-4.88396 4.883962,-4.88396 z" />
  </g>
</svg>
